<svg width="24" height="24" viewBox="0 0 24 24" fill="none" xmlns="http://www.w3.org/2000/svg">
<g clip-path="url(#clip0_175_7)">
<g clip-path="url(#clip1_175_7)">
<path fill-rule="evenodd" clip-rule="evenodd" d="M9.47727 1.5H5.79545C4.66527 1.5 3.75 2.46 3.75 3.64286V23.3571C3.75 24.54 4.66636 25.5 5.79545 25.5H19.7045C20.8336 25.5 21.75 24.54 21.75 23.3571V14.3571C21.75 13.2205 21.319 12.1304 20.5518 11.3267C19.7846 10.523 18.7441 10.0714 17.6591 10.0714H15.6136C15.0711 10.0714 14.5509 9.84566 14.1673 9.4438C13.7837 9.04194 13.5682 8.49689 13.5682 7.92857V5.78571C13.5682 4.64907 13.1372 3.55898 12.37 2.75526C11.6028 1.95153 10.5622 1.5 9.47727 1.5ZM16.6882 13.9983C16.7536 13.9069 16.801 13.8028 16.8275 13.6919C16.854 13.5811 16.859 13.4659 16.8424 13.353C16.8257 13.2401 16.7877 13.1318 16.7306 13.0345C16.6734 12.9372 16.5983 12.8529 16.5096 12.7865C16.4208 12.72 16.3203 12.6728 16.214 12.6477C16.1076 12.6225 15.9975 12.6199 15.8902 12.64C15.7828 12.66 15.6804 12.7023 15.5888 12.7645C15.4973 12.8266 15.4186 12.9073 15.3573 13.0017L11.8271 18.1789L10.0555 16.3229C9.90035 16.1715 9.69521 16.089 9.48325 16.0929C9.27128 16.0969 9.06905 16.1868 8.91914 16.3439C8.76924 16.5009 8.68337 16.7128 8.67963 16.9348C8.67589 17.1569 8.75457 17.3718 8.89909 17.5343L11.3536 20.1057C11.4376 20.1936 11.5389 20.2614 11.6504 20.3042C11.7618 20.347 11.8809 20.3639 11.9992 20.3536C12.1175 20.3434 12.2323 20.3063 12.3356 20.245C12.4389 20.1836 12.5282 20.0994 12.5973 19.9983L16.6882 13.9983Z" fill="white"/>
<path d="M12.9709 1.816C13.7975 2.76897 14.2517 3.98855 14.2499 5.25V7.125C14.2499 7.332 14.4179 7.5 14.6249 7.5H16.4999C17.7614 7.49825 18.981 7.95249 19.9339 8.779C19.494 7.10571 18.6175 5.5793 17.3941 4.35589C16.1706 3.13248 14.6442 2.25597 12.9709 1.816Z" fill="white"/>
</g>
</g>
<defs>
<clipPath id="clip0_175_7">
<rect width="24" height="24" fill="white"/>
</clipPath>
<clipPath id="clip1_175_7">
<rect width="24" height="24" fill="white"/>
</clipPath>
</defs>
</svg>
