<svg width="24" height="24" viewBox="0 0 24 24" fill="none" xmlns="http://www.w3.org/2000/svg">
<path d="M9.30003 3.30002C9.30003 3.06133 9.20521 2.83241 9.03643 2.66363C8.86765 2.49485 8.63873 2.40002 8.40003 2.40002C8.16134 2.40002 7.93242 2.49485 7.76364 2.66363C7.59486 2.83241 7.50003 3.06133 7.50003 3.30002V4.80962C6.05542 4.84192 4.61367 4.95328 3.18123 5.14322C3.06407 5.15882 2.95112 5.19735 2.84885 5.2566C2.74657 5.31585 2.65697 5.39467 2.58515 5.48855C2.51333 5.58243 2.46071 5.68953 2.43029 5.80375C2.39986 5.91797 2.39223 6.03706 2.40783 6.15422C2.42344 6.27139 2.46196 6.38434 2.52121 6.48661C2.58046 6.58889 2.65928 6.67849 2.75316 6.75031C2.84704 6.82213 2.95414 6.87475 3.06836 6.90517C3.18258 6.9356 3.30167 6.94322 3.41883 6.92762C5.74569 6.61894 8.09621 6.52734 10.44 6.65402C9.94342 8.33164 9.25909 9.94787 8.40003 11.472C7.95136 10.6763 7.54987 9.85488 7.19763 9.01202C7.10162 8.79806 6.92589 8.63002 6.70784 8.54368C6.48979 8.45735 6.24665 8.45954 6.03019 8.54978C5.81373 8.64003 5.64104 8.8112 5.5489 9.02686C5.45675 9.24251 5.45242 9.48562 5.53683 9.70442C6.04167 10.9133 6.6403 12.0809 7.32723 13.1964C6.04459 15.071 4.49735 16.75 2.73363 18.1812C2.63782 18.2543 2.55766 18.3459 2.4979 18.4505C2.43813 18.5551 2.39999 18.6707 2.38572 18.7903C2.37146 18.91 2.38136 19.0312 2.41485 19.147C2.44834 19.2627 2.50473 19.3706 2.58067 19.4641C2.65662 19.5577 2.75057 19.635 2.85697 19.6916C2.96336 19.7481 3.08003 19.7827 3.20006 19.7934C3.32008 19.804 3.44101 19.7904 3.55569 19.7534C3.67036 19.7164 3.77644 19.6568 3.86763 19.578C5.58003 18.1884 7.10371 16.5813 8.40003 14.7972C8.51403 14.9556 8.63043 15.1116 8.74803 15.2664C8.89284 15.4564 9.1072 15.5811 9.34394 15.6131C9.58069 15.645 9.82043 15.5816 10.0104 15.4368C10.2004 15.292 10.3251 15.0777 10.3571 14.8409C10.389 14.6042 10.3256 14.3644 10.1808 14.1744C9.93603 13.8552 9.70083 13.5288 9.47283 13.1964C10.7001 11.2047 11.6424 9.05102 12.2724 6.79802C12.6444 6.83522 13.014 6.87962 13.3812 6.92762C13.6179 6.95913 13.8573 6.89535 14.0469 6.75031C14.2365 6.60527 14.3607 6.39085 14.3922 6.15422C14.4237 5.9176 14.36 5.67815 14.2149 5.48855C14.0699 5.29895 13.8555 5.17473 13.6188 5.14322C12.1864 4.95291 10.7447 4.84154 9.30003 4.80962V3.30002Z" fill="#BFBFBF"/>
<path fill-rule="evenodd" clip-rule="evenodd" d="M15.5998 9.59998C15.767 9.59998 15.931 9.64658 16.0732 9.73454C16.2154 9.82251 16.3303 9.94836 16.405 10.098L21.505 20.298C21.5589 20.4038 21.5913 20.5193 21.6003 20.6377C21.6094 20.7562 21.5949 20.8752 21.5577 20.988C21.5205 21.1008 21.4613 21.2052 21.3836 21.295C21.3059 21.3848 21.2112 21.4584 21.1049 21.5115C20.9987 21.5645 20.883 21.596 20.7645 21.6041C20.6459 21.6122 20.527 21.5968 20.4145 21.5588C20.302 21.5207 20.1981 21.4607 20.1089 21.3823C20.0197 21.3039 19.9468 21.2087 19.8946 21.102L18.9442 19.2H12.2566L11.305 21.102C11.2528 21.2087 11.1799 21.3039 11.0907 21.3823C11.0015 21.4607 10.8976 21.5207 10.7851 21.5588C10.6726 21.5968 10.5537 21.6122 10.4352 21.6041C10.3167 21.596 10.2009 21.5645 10.0947 21.5115C9.9884 21.4584 9.89368 21.3848 9.81598 21.295C9.73827 21.2052 9.67912 21.1008 9.64193 20.988C9.60474 20.8752 9.59025 20.7562 9.59929 20.6377C9.60833 20.5193 9.64073 20.4038 9.69461 20.298L14.7946 10.098C14.8693 9.94836 14.9842 9.82251 15.1264 9.73454C15.2687 9.64658 15.4326 9.59998 15.5998 9.59998ZM18.0442 17.4L15.5998 12.5124L13.1566 17.4H18.0442Z" fill="#BFBFBF"/>
</svg>
