<svg width="21" height="18" viewBox="0 0 21 18" fill="none" xmlns="http://www.w3.org/2000/svg">
<path d="M1.03612 0.977539C0.498467 0.977539 0.065918 1.4148 0.065918 1.95831V3.91985C0.065918 4.46336 0.498467 4.90062 1.03612 4.90062H2.97653C3.51419 4.90062 3.94674 4.46336 3.94674 3.91985V1.95831C3.94674 1.4148 3.51419 0.977539 2.97653 0.977539H1.03612ZM7.18075 1.63139C6.46522 1.63139 5.88714 2.21576 5.88714 2.93908C5.88714 3.66239 6.46522 4.24677 7.18075 4.24677H18.8232C19.5387 4.24677 20.1168 3.66239 20.1168 2.93908C20.1168 2.21576 19.5387 1.63139 18.8232 1.63139H7.18075ZM7.18075 8.16985C6.46522 8.16985 5.88714 8.75422 5.88714 9.47754C5.88714 10.2009 6.46522 10.7852 7.18075 10.7852H18.8232C19.5387 10.7852 20.1168 10.2009 20.1168 9.47754C20.1168 8.75422 19.5387 8.16985 18.8232 8.16985H7.18075ZM7.18075 14.7083C6.46522 14.7083 5.88714 15.2927 5.88714 16.016C5.88714 16.7393 6.46522 17.3237 7.18075 17.3237H18.8232C19.5387 17.3237 20.1168 16.7393 20.1168 16.016C20.1168 15.2927 19.5387 14.7083 18.8232 14.7083H7.18075ZM0.065918 8.49677V10.4583C0.065918 11.0018 0.498467 11.4391 1.03612 11.4391H2.97653C3.51419 11.4391 3.94674 11.0018 3.94674 10.4583V8.49677C3.94674 7.95326 3.51419 7.516 2.97653 7.516H1.03612C0.498467 7.516 0.065918 7.95326 0.065918 8.49677ZM1.03612 14.0545C0.498467 14.0545 0.065918 14.4917 0.065918 15.0352V16.9968C0.065918 17.5403 0.498467 17.9775 1.03612 17.9775H2.97653C3.51419 17.9775 3.94674 17.5403 3.94674 16.9968V15.0352C3.94674 14.4917 3.51419 14.0545 2.97653 14.0545H1.03612Z" fill="#BFBFBF"/>
</svg>
