<svg width="20" height="18" viewBox="0 0 20 18" fill="none" xmlns="http://www.w3.org/2000/svg">
<path d="M9.645 17.91L9.638 17.907L9.616 17.895C9.48729 17.8242 9.35961 17.7515 9.233 17.677C7.71081 16.7725 6.28828 15.7099 4.989 14.507C2.688 12.36 0.25 9.174 0.25 5.25C0.25 2.322 2.714 -1.52801e-06 5.688 -1.52801e-06C6.51475 -0.00405095 7.33178 0.178339 8.07832 0.533604C8.82486 0.888868 9.48171 1.40787 10 2.052C10.5184 1.40773 11.1754 0.888656 11.9221 0.533386C12.6689 0.178116 13.4861 -0.00420153 14.313 -1.52801e-06C17.286 -1.52801e-06 19.75 2.322 19.75 5.25C19.75 9.175 17.312 12.361 15.011 14.506C13.7117 15.709 12.2892 16.7715 10.767 17.676C10.6404 17.7508 10.5127 17.8238 10.384 17.895L10.362 17.907L10.355 17.911L10.352 17.912C10.2436 17.9694 10.1227 17.9995 10 17.9995C9.87729 17.9995 9.75644 17.9694 9.648 17.912L9.645 17.91Z" fill="white"/>
</svg>
