<svg width="24" height="24" viewBox="0 0 24 24" fill="none" xmlns="http://www.w3.org/2000/svg">
<path fill-rule="evenodd" clip-rule="evenodd" d="M21.5999 12C21.5999 14.5461 20.5885 16.9879 18.7881 18.7882C16.9878 20.5886 14.546 21.6 11.9999 21.6C9.45382 21.6 7.01203 20.5886 5.21168 18.7882C3.41133 16.9879 2.3999 14.5461 2.3999 12C2.3999 9.45395 3.41133 7.01215 5.21168 5.2118C7.01203 3.41145 9.45382 2.40002 11.9999 2.40002C14.546 2.40002 16.9878 3.41145 18.7881 5.2118C20.5885 7.01215 21.5999 9.45395 21.5999 12ZM13.1999 7.20002C13.1999 7.51828 13.0735 7.82351 12.8484 8.04855C12.6234 8.2736 12.3182 8.40002 11.9999 8.40002C11.6816 8.40002 11.3764 8.2736 11.1514 8.04855C10.9263 7.82351 10.7999 7.51828 10.7999 7.20002C10.7999 6.88176 10.9263 6.57654 11.1514 6.3515C11.3764 6.12645 11.6816 6.00002 11.9999 6.00002C12.3182 6.00002 12.6234 6.12645 12.8484 6.3515C13.0735 6.57654 13.1999 6.88176 13.1999 7.20002ZM10.7999 10.8C10.5612 10.8 10.3323 10.8948 10.1635 11.0636C9.99472 11.2324 9.8999 11.4613 9.8999 11.7C9.8999 11.9387 9.99472 12.1676 10.1635 12.3364C10.3323 12.5052 10.5612 12.6 10.7999 12.6H11.1035C11.1484 12.6 11.1927 12.6101 11.2332 12.6296C11.2736 12.649 11.3092 12.6772 11.3373 12.7122C11.3654 12.7472 11.3853 12.7881 11.3955 12.8318C11.4057 12.8755 11.406 12.921 11.3963 12.9648L10.8455 15.444C10.7772 15.7511 10.7787 16.0696 10.85 16.376C10.9214 16.6824 11.0606 16.9689 11.2574 17.2142C11.4543 17.4596 11.7038 17.6576 11.9875 17.7936C12.2711 17.9296 12.5817 18.0002 12.8963 18H13.1999C13.4386 18 13.6675 17.9052 13.8363 17.7364C14.0051 17.5676 14.0999 17.3387 14.0999 17.1C14.0999 16.8613 14.0051 16.6324 13.8363 16.4636C13.6675 16.2948 13.4386 16.2 13.1999 16.2H12.8963C12.8514 16.2 12.8071 16.1899 12.7666 16.1705C12.7262 16.1511 12.6906 16.1228 12.6625 16.0878C12.6344 16.0528 12.6145 16.0119 12.6043 15.9682C12.5941 15.9245 12.5938 15.8791 12.6035 15.8352L13.1543 13.356C13.2226 13.0489 13.2211 12.7304 13.1498 12.424C13.0785 12.1177 12.9392 11.8312 12.7424 11.5858C12.5455 11.3405 12.296 11.1425 12.0123 11.0064C11.7287 10.8704 11.4181 10.7999 11.1035 10.8H10.7999Z" fill="#BFBFBF"/>
</svg>
