<svg width="24" height="24" viewBox="0 0 24 24" fill="none" xmlns="http://www.w3.org/2000/svg">
<path fill-rule="evenodd" clip-rule="evenodd" d="M10.9395 0.439185C11.2208 0.157975 11.6022 0 12 0C12.3978 0 12.7792 0.157975 13.0605 0.439185L23.5608 10.9393C23.7705 11.1491 23.9133 11.4164 23.9712 11.7073C24.029 11.9982 23.9993 12.2998 23.8858 12.5738C23.7723 12.8479 23.5801 13.0821 23.3335 13.247C23.0869 13.4118 22.7969 13.4998 22.5003 13.4999H21.0002V22.5C21.0002 22.8978 20.8422 23.2793 20.5609 23.5607C20.2796 23.842 19.898 24 19.5002 24H16.5001C16.1023 24 15.7207 23.842 15.4394 23.5607C15.1581 23.2793 15.0001 22.8978 15.0001 22.5V17.9999C15.0001 17.6021 14.842 17.2206 14.5607 16.9392C14.2794 16.6579 13.8979 16.4999 13.5 16.4999H10.5C10.1021 16.4999 9.72058 16.6579 9.43927 16.9392C9.15796 17.2206 8.99992 17.6021 8.99992 17.9999V22.5C8.99992 22.8978 8.84188 23.2793 8.56057 23.5607C8.27926 23.842 7.89772 24 7.49988 24H4.4998C4.10196 24 3.72042 23.842 3.43911 23.5607C3.1578 23.2793 2.99976 22.8978 2.99976 22.5V13.4999H1.49972C1.20309 13.4998 0.913132 13.4118 0.66651 13.247C0.419889 13.0821 0.227675 12.8479 0.114167 12.5738C0.000658444 12.2998 -0.0290469 11.9982 0.028806 11.7073C0.0866589 11.4164 0.229472 11.1491 0.439192 10.9393L10.9395 0.439185Z" fill="white"/>
</svg>
