<svg width="24" height="24" viewBox="0 0 24 24" fill="none" xmlns="http://www.w3.org/2000/svg">
<path fill-rule="evenodd" clip-rule="evenodd" d="M12.0001 1.20001C10.5679 1.20001 9.19442 1.76894 8.18172 2.78164C7.16902 3.79433 6.6001 5.16784 6.6001 6.60001V10.8H6.0001C5.36358 10.8 4.75313 11.0529 4.30304 11.503C3.85295 11.953 3.6001 12.5635 3.6001 13.2V20.4C3.6001 21.0365 3.85295 21.647 4.30304 22.0971C4.75313 22.5472 5.36358 22.8 6.0001 22.8H18.0001C18.6366 22.8 19.2471 22.5472 19.6972 22.0971C20.1472 21.647 20.4001 21.0365 20.4001 20.4V13.2C20.4001 12.5635 20.1472 11.953 19.6972 11.503C19.2471 11.0529 18.6366 10.8 18.0001 10.8H17.4001V6.60001C17.4001 5.16784 16.8312 3.79433 15.8185 2.78164C14.8058 1.76894 13.4323 1.20001 12.0001 1.20001ZM15.6001 10.8V6.60001C15.6001 5.64523 15.2208 4.72956 14.5457 4.05443C13.8706 3.3793 12.9549 3.00001 12.0001 3.00001C11.0453 3.00001 10.1296 3.3793 9.45451 4.05443C8.77938 4.72956 8.4001 5.64523 8.4001 6.60001V10.8H15.6001Z" fill="#BFBFBF"/>
</svg>
