<svg width="25" height="25" viewBox="0 0 25 25" fill="none" xmlns="http://www.w3.org/2000/svg">
<path d="M6.80114 1.6875H4.75568C3.94195 1.6875 3.16155 2.01075 2.58615 2.58615C2.01075 3.16155 1.6875 3.94195 1.6875 4.75568V6.80114M19.0739 1.6875H21.1193C21.9331 1.6875 22.7135 2.01075 23.2889 2.58615C23.8642 3.16155 24.1875 3.94195 24.1875 4.75568V6.80114M24.1875 19.0739V21.1193C24.1875 21.9331 23.8642 22.7135 23.2889 23.2889C22.7135 23.8642 21.9331 24.1875 21.1193 24.1875H19.0739M6.80114 24.1875H4.75568C3.94195 24.1875 3.16155 23.8642 2.58615 23.2889C2.01075 22.7135 1.6875 21.9331 1.6875 21.1193V19.0739M17.0284 12.9375C17.0284 14.0225 16.5974 15.063 15.8302 15.8302C15.063 16.5974 14.0225 17.0284 12.9375 17.0284C11.8525 17.0284 10.812 16.5974 10.0448 15.8302C9.2776 15.063 8.84659 14.0225 8.84659 12.9375C8.84659 11.8525 9.2776 10.812 10.0448 10.0448C10.812 9.2776 11.8525 8.84659 12.9375 8.84659C14.0225 8.84659 15.063 9.2776 15.8302 10.0448C16.5974 10.812 17.0284 11.8525 17.0284 12.9375Z" stroke="white" stroke-width="1.5" stroke-linecap="round" stroke-linejoin="round"/>
</svg>
