<svg width="24" height="24" viewBox="0 0 24 24" fill="none" xmlns="http://www.w3.org/2000/svg">
<path fill-rule="evenodd" clip-rule="evenodd" d="M11.9999 21.6C14.546 21.6 16.9878 20.5886 18.7881 18.7882C20.5885 16.9879 21.5999 14.5461 21.5999 12C21.5999 9.45395 20.5885 7.01215 18.7881 5.2118C16.9878 3.41145 14.546 2.40002 11.9999 2.40002C9.45382 2.40002 7.01203 3.41145 5.21168 5.2118C3.41133 7.01215 2.3999 9.45395 2.3999 12C2.3999 14.5461 3.41133 16.9879 5.21168 18.7882C7.01203 20.5886 9.45382 21.6 11.9999 21.6ZM12.8999 6.00002C12.8999 5.76133 12.8051 5.53241 12.6363 5.36363C12.4675 5.19485 12.2386 5.10002 11.9999 5.10002C11.7612 5.10002 11.5323 5.19485 11.3635 5.36363C11.1947 5.53241 11.0999 5.76133 11.0999 6.00002V12C11.0999 12.4968 11.5031 12.9 11.9999 12.9H16.7999C17.0386 12.9 17.2675 12.8052 17.4363 12.6364C17.6051 12.4676 17.6999 12.2387 17.6999 12C17.6999 11.7613 17.6051 11.5324 17.4363 11.3636C17.2675 11.1948 17.0386 11.1 16.7999 11.1H12.8999V6.00002Z" fill="#BFBFBF"/>
</svg>
