<svg width="24" height="24" viewBox="0 0 24 24" fill="none" xmlns="http://www.w3.org/2000/svg">
<path fill-rule="evenodd" clip-rule="evenodd" d="M1.2002 7.19998C1.2002 6.2452 1.57948 5.32952 2.25461 4.65439C2.92974 3.97926 3.84542 3.59998 4.8002 3.59998H19.2002C20.155 3.59998 21.0707 3.97926 21.7458 4.65439C22.4209 5.32952 22.8002 6.2452 22.8002 7.19998V16.8C22.8002 17.7548 22.4209 18.6704 21.7458 19.3456C21.0707 20.0207 20.155 20.4 19.2002 20.4H4.8002C3.84542 20.4 2.92974 20.0207 2.25461 19.3456C1.57948 18.6704 1.2002 17.7548 1.2002 16.8V7.19998ZM6.0002 8.99998C6.0002 8.36346 6.25305 7.75301 6.70314 7.30292C7.15323 6.85283 7.76368 6.59998 8.4002 6.59998C9.03672 6.59998 9.64716 6.85283 10.0973 7.30292C10.5473 7.75301 10.8002 8.36346 10.8002 8.99998C10.8002 9.63649 10.5473 10.2469 10.0973 10.697C9.64716 11.1471 9.03672 11.4 8.4002 11.4C7.76368 11.4 7.15323 11.1471 6.70314 10.697C6.25305 10.2469 6.0002 9.63649 6.0002 8.99998ZM8.4002 12.6C7.46711 12.5997 6.55418 12.8714 5.77308 13.3818C4.99199 13.8923 4.3766 14.6193 4.0022 15.474C3.95351 15.5852 3.92784 15.7052 3.92673 15.8266C3.92562 15.948 3.94909 16.0684 3.99572 16.1805C4.04236 16.2926 4.11121 16.3941 4.19811 16.4789C4.28501 16.5637 4.38818 16.6301 4.5014 16.674C5.74489 17.1551 7.06687 17.4013 8.4002 17.4C9.73344 17.4016 11.0554 17.1559 12.299 16.6752C12.4124 16.6313 12.5157 16.5649 12.6027 16.48C12.6897 16.3951 12.7586 16.2935 12.8052 16.1812C12.8519 16.069 12.8753 15.9484 12.8741 15.8269C12.8729 15.7053 12.8471 15.5853 12.7982 15.474C12.4237 14.6194 11.8082 13.8925 11.0272 13.382C10.2461 12.8716 9.33325 12.5999 8.4002 12.6ZM14.4002 8.09998C14.4002 7.86128 14.495 7.63236 14.6638 7.46358C14.8326 7.2948 15.0615 7.19998 15.3002 7.19998H18.3002C18.5389 7.19998 18.7678 7.2948 18.9366 7.46358C19.1054 7.63236 19.2002 7.86128 19.2002 8.09998C19.2002 8.33867 19.1054 8.56759 18.9366 8.73637C18.7678 8.90515 18.5389 8.99998 18.3002 8.99998H15.3002C15.0615 8.99998 14.8326 8.90515 14.6638 8.73637C14.495 8.56759 14.4002 8.33867 14.4002 8.09998ZM14.4002 15.9C14.4002 15.6613 14.495 15.4324 14.6638 15.2636C14.8326 15.0948 15.0615 15 15.3002 15H18.3002C18.5389 15 18.7678 15.0948 18.9366 15.2636C19.1054 15.4324 19.2002 15.6613 19.2002 15.9C19.2002 16.1387 19.1054 16.3676 18.9366 16.5364C18.7678 16.7052 18.5389 16.8 18.3002 16.8H15.3002C15.0615 16.8 14.8326 16.7052 14.6638 16.5364C14.495 16.3676 14.4002 16.1387 14.4002 15.9ZM15.3002 11.1C15.0615 11.1 14.8326 11.1948 14.6638 11.3636C14.495 11.5324 14.4002 11.7613 14.4002 12C14.4002 12.2387 14.495 12.4676 14.6638 12.6364C14.8326 12.8052 15.0615 12.9 15.3002 12.9H18.3002C18.5389 12.9 18.7678 12.8052 18.9366 12.6364C19.1054 12.4676 19.2002 12.2387 19.2002 12C19.2002 11.7613 19.1054 11.5324 18.9366 11.3636C18.7678 11.1948 18.5389 11.1 18.3002 11.1H15.3002Z" fill="#BFBFBF"/>
</svg>
