<svg width="24" height="24" viewBox="0 0 24 24" fill="none" xmlns="http://www.w3.org/2000/svg">
<path fill-rule="evenodd" clip-rule="evenodd" d="M8.94576 2.40477C9.08105 2.51253 9.18243 2.65698 9.23776 2.82085C9.29309 2.98472 9.30004 3.16106 9.25776 3.32877C8.85907 4.89353 8.91984 6.54004 9.4328 8.07116C9.94575 9.60227 10.8891 10.9531 12.15 11.9619C13.4109 12.9706 14.9358 13.5946 16.5422 13.7591C18.1485 13.9235 19.7682 13.6215 21.2074 12.8892C21.3615 12.8108 21.5349 12.7784 21.707 12.796C21.879 12.8136 22.0423 12.8804 22.1774 12.9884C22.3125 13.0964 22.4136 13.241 22.4686 13.4049C22.5237 13.5688 22.5303 13.7452 22.4878 13.9128C22.0668 15.5655 21.2381 17.0863 20.0776 18.3361C18.917 19.5858 17.4616 20.5246 15.8445 21.0666C14.2273 21.6085 12.5001 21.7363 10.8209 21.4383C9.14159 21.1402 7.56386 20.4259 6.232 19.3606C4.90013 18.2952 3.85667 16.9129 3.19705 15.3401C2.53744 13.7673 2.28274 12.0542 2.45624 10.3576C2.62975 8.66088 3.22594 7.0348 4.19025 5.62807C5.15457 4.22134 6.45623 3.07887 7.97616 2.30517C8.13027 2.22691 8.30366 2.19469 8.47561 2.21235C8.64755 2.23002 8.81077 2.29682 8.94576 2.40477Z" fill="#BFBFBF"/>
</svg>
