<svg width="30" height="30" viewBox="0 0 30 30" fill="none" xmlns="http://www.w3.org/2000/svg">
<path d="M8.53375 7.71876C8.30874 8.0749 8.00852 8.37749 7.65417 8.6053C7.29982 8.83312 6.89991 8.98064 6.4825 9.03751C6.0075 9.10501 5.53625 9.17751 5.065 9.25626C3.74875 9.47501 2.8125 10.6338 2.8125 11.9675V22.5C2.8125 23.2459 3.10882 23.9613 3.63626 24.4887C4.16371 25.0162 4.87908 25.3125 5.625 25.3125H24.375C25.1209 25.3125 25.8363 25.0162 26.3637 24.4887C26.8912 23.9613 27.1875 23.2459 27.1875 22.5V11.9675C27.1875 10.6338 26.25 9.47501 24.935 9.25626C24.4634 9.17769 23.9909 9.10476 23.5175 9.03751C23.1003 8.98046 22.7006 8.83286 22.3465 8.60506C21.9924 8.37725 21.6924 8.07475 21.4675 7.71876L20.44 6.07376C20.2092 5.69889 19.8915 5.38513 19.5138 5.15906C19.1361 4.93299 18.7094 4.80125 18.27 4.77501C16.0916 4.658 13.9084 4.658 11.73 4.77501C11.2906 4.80125 10.8639 4.93299 10.4862 5.15906C10.1085 5.38513 9.79077 5.69889 9.56 6.07376L8.53375 7.71876Z" stroke="#3A5118" stroke-width="1.5" stroke-linecap="round" stroke-linejoin="round"/>
<path d="M20.625 15.9375C20.625 17.4293 20.0324 18.8601 18.9775 19.915C17.9226 20.9699 16.4918 21.5625 15 21.5625C13.5082 21.5625 12.0774 20.9699 11.0225 19.915C9.96763 18.8601 9.375 17.4293 9.375 15.9375C9.375 14.4457 9.96763 13.0149 11.0225 11.96C12.0774 10.9051 13.5082 10.3125 15 10.3125C16.4918 10.3125 17.9226 10.9051 18.9775 11.96C20.0324 13.0149 20.625 14.4457 20.625 15.9375ZM23.4375 13.125H23.4475V13.135H23.4375V13.125Z" stroke="#3A5118" stroke-width="1.5" stroke-linecap="round" stroke-linejoin="round"/>
</svg>
