<?xml version="1.0" encoding="UTF-8"?>
<!DOCTYPE svg PUBLIC "-//W3C//DTD SVG 1.1//EN" "http://www.w3.org/Graphics/SVG/1.1/DTD/svg11.dtd">
<svg xmlns="http://www.w3.org/2000/svg" version="1.1" width="688px" height="688px" style="shape-rendering:geometricPrecision; text-rendering:geometricPrecision; image-rendering:optimizeQuality; fill-rule:evenodd; clip-rule:evenodd" xmlns:xlink="http://www.w3.org/1999/xlink">
<g><path style="opacity:1" fill="#fefefe" d="M -0.5,-0.5 C 228.833,-0.5 458.167,-0.5 687.5,-0.5C 687.5,228.833 687.5,458.167 687.5,687.5C 458.167,687.5 228.833,687.5 -0.5,687.5C -0.5,458.167 -0.5,228.833 -0.5,-0.5 Z"/></g>
<g><path style="opacity:1" fill="#608729" d="M 360.5,347.5 C 359.503,367.66 359.17,387.993 359.5,408.5C 405.5,408.5 451.5,408.5 497.5,408.5C 503.335,410.162 507.501,413.829 510,419.5C 509.727,473.882 487.894,517.049 444.5,549C 412.077,567.689 377.077,576.523 339.5,575.5C 301.551,576.087 266.885,565.921 235.5,545C 205.658,521.518 186.825,491.018 179,453.5C 176.245,442.308 175.245,430.974 176,419.5C 178.507,413.819 182.674,410.152 188.5,408.5C 234.5,408.5 280.5,408.5 326.5,408.5C 326.5,365.833 326.5,323.167 326.5,280.5C 324.901,280.232 323.568,280.566 322.5,281.5C 262.655,290.979 214.155,271.979 177,224.5C 161.376,202.296 153.376,177.629 153,150.5C 154.461,146.74 156.961,143.907 160.5,142C 190.266,129.725 220.933,127.058 252.5,134C 310.351,150.851 345.851,188.685 359,247.5C 400.392,202.188 450.892,187.355 510.5,203C 518.077,205.183 524.91,208.683 531,213.5C 534.225,218.399 535.225,223.732 534,229.5C 524.857,279.318 497.69,315.485 452.5,338C 422.882,350.918 392.215,354.085 360.5,347.5 Z"/></g>
<g><path style="opacity:1" fill="#fdfefd" d="M 202.5,163.5 C 247.023,160.149 282.523,176.149 309,211.5C 315.656,222.313 320.822,233.813 324.5,246C 280.273,257.32 242.44,246.486 211,213.5C 200.027,200.223 192.194,185.223 187.5,168.5C 192.397,166.306 197.397,164.639 202.5,163.5 Z"/></g>
<g><path style="opacity:1" fill="#fefefd" d="M 453.5,230.5 C 465.203,230.232 476.869,230.732 488.5,232C 491.959,232.863 495.293,234.03 498.5,235.5C 485.478,279.021 456.812,305.854 412.5,316C 401.206,317.492 389.872,317.826 378.5,317C 373.145,316.535 367.978,315.369 363,313.5C 367.925,290.5 379.425,271.333 397.5,256C 414.091,242.87 432.757,234.37 453.5,230.5 Z"/></g>
<g><path style="opacity:1" fill="#d8e2ca" d="M 322.5,281.5 C 323.568,280.566 324.901,280.232 326.5,280.5C 326.5,323.167 326.5,365.833 326.5,408.5C 280.5,408.5 234.5,408.5 188.5,408.5C 233.997,407.501 279.664,407.168 325.5,407.5C 325.5,365.5 325.5,323.5 325.5,281.5C 324.5,281.5 323.5,281.5 322.5,281.5 Z"/></g>
<g><path style="opacity:1" fill="#b1c495" d="M 360.5,347.5 C 360.5,367.5 360.5,387.5 360.5,407.5C 406.336,407.168 452.003,407.501 497.5,408.5C 451.5,408.5 405.5,408.5 359.5,408.5C 359.17,387.993 359.503,367.66 360.5,347.5 Z"/></g>
<g><path style="opacity:1" fill="#fefefe" d="M 210.5,441.5 C 298.833,441.5 387.167,441.5 475.5,441.5C 462.574,501.916 425.24,535.083 363.5,541C 331.106,544.992 300.106,540.325 270.5,527C 236.678,508.323 216.678,479.823 210.5,441.5 Z"/></g>
</svg>
