<svg width="24" height="24" viewBox="0 0 24 24" fill="none" xmlns="http://www.w3.org/2000/svg">
<path d="M4.5 0.75C3.50544 0.75 2.55161 1.14509 1.84835 1.84835C1.14509 2.55161 0.75 3.50544 0.75 4.5V6.375C0.75 6.62364 0.848772 6.8621 1.02459 7.03791C1.2004 7.21373 1.43886 7.3125 1.6875 7.3125C1.93614 7.3125 2.1746 7.21373 2.35041 7.03791C2.52623 6.8621 2.625 6.62364 2.625 6.375V4.5C2.625 4.00272 2.82254 3.52581 3.17417 3.17417C3.52581 2.82254 4.00272 2.625 4.5 2.625H6.375C6.62364 2.625 6.8621 2.52623 7.03791 2.35041C7.21373 2.1746 7.3125 1.93614 7.3125 1.6875C7.3125 1.43886 7.21373 1.2004 7.03791 1.02459C6.8621 0.848772 6.62364 0.75 6.375 0.75H4.5ZM17.625 0.75C17.3764 0.75 17.1379 0.848772 16.9621 1.02459C16.7863 1.2004 16.6875 1.43886 16.6875 1.6875C16.6875 1.93614 16.7863 2.1746 16.9621 2.35041C17.1379 2.52623 17.3764 2.625 17.625 2.625H19.5C19.9973 2.625 20.4742 2.82254 20.8258 3.17417C21.1775 3.52581 21.375 4.00272 21.375 4.5V6.375C21.375 6.62364 21.4738 6.8621 21.6496 7.03791C21.8254 7.21373 22.0639 7.3125 22.3125 7.3125C22.5611 7.3125 22.7996 7.21373 22.9754 7.03791C23.1512 6.8621 23.25 6.62364 23.25 6.375V4.5C23.25 3.50544 22.8549 2.55161 22.1517 1.84835C21.4484 1.14509 20.4946 0.75 19.5 0.75H17.625ZM12 7.3125C10.7568 7.3125 9.56451 7.80636 8.68544 8.68544C7.80636 9.56451 7.3125 10.7568 7.3125 12C7.3125 13.2432 7.80636 14.4355 8.68544 15.3146C9.56451 16.1936 10.7568 16.6875 12 16.6875C13.2432 16.6875 14.4355 16.1936 15.3146 15.3146C16.1936 14.4355 16.6875 13.2432 16.6875 12C16.6875 10.7568 16.1936 9.56451 15.3146 8.68544C14.4355 7.80636 13.2432 7.3125 12 7.3125ZM2.625 17.625C2.625 17.3764 2.52623 17.1379 2.35041 16.9621C2.1746 16.7863 1.93614 16.6875 1.6875 16.6875C1.43886 16.6875 1.2004 16.7863 1.02459 16.9621C0.848772 17.1379 0.75 17.3764 0.75 17.625V19.5C0.75 20.4946 1.14509 21.4484 1.84835 22.1517C2.55161 22.8549 3.50544 23.25 4.5 23.25H6.375C6.62364 23.25 6.8621 23.1512 7.03791 22.9754C7.21373 22.7996 7.3125 22.5611 7.3125 22.3125C7.3125 22.0639 7.21373 21.8254 7.03791 21.6496C6.8621 21.4738 6.62364 21.375 6.375 21.375H4.5C4.00272 21.375 3.52581 21.1775 3.17417 20.8258C2.82254 20.4742 2.625 19.9973 2.625 19.5V17.625ZM23.25 17.625C23.25 17.3764 23.1512 17.1379 22.9754 16.9621C22.7996 16.7863 22.5611 16.6875 22.3125 16.6875C22.0639 16.6875 21.8254 16.7863 21.6496 16.9621C21.4738 17.1379 21.375 17.3764 21.375 17.625V19.5C21.375 19.9973 21.1775 20.4742 20.8258 20.8258C20.4742 21.1775 19.9973 21.375 19.5 21.375H17.625C17.3764 21.375 17.1379 21.4738 16.9621 21.6496C16.7863 21.8254 16.6875 22.0639 16.6875 22.3125C16.6875 22.5611 16.7863 22.7996 16.9621 22.9754C17.1379 23.1512 17.3764 23.25 17.625 23.25H19.5C20.4946 23.25 21.4484 22.8549 22.1517 22.1517C22.8549 21.4484 23.25 20.4946 23.25 19.5V17.625Z" fill="white"/>
</svg>
